<svg width="120" height="120" viewBox="0 0 120 120" fill="none" xmlns="http://www.w3.org/2000/svg">
<g id="Soft Token Icon">
<circle id="Ellipse 1" cx="60" cy="60" r="60" fill="#004AAD"/>
<path id="S Icon" d="M63.4142 73.8362C64.0951 73.8362 64.6671 73.5983 65.1347 73.1272C65.6022 72.6561 65.8383 72.0798 65.8383 71.3891C65.8383 70.7442 65.6022 70.1908 65.1347 69.7197C64.6671 69.2486 64.0906 69.0107 63.4142 69.0107H56.587C50.9308 69.0107 46.1009 67.0073 42.1017 63.0006C38.0979 58.9939 36.1006 54.1181 36.1006 48.3732C36.1006 42.6284 38.0979 37.8715 42.0971 33.8419C46.0964 29.8123 50.9263 27.7998 56.5824 27.7998H83.896V35.6441H56.5824C53.0916 35.6441 50.1047 36.8882 47.6171 39.3718C45.1295 41.86 43.8857 44.8605 43.8857 48.3732C43.8857 51.886 45.1295 54.9002 47.6171 57.4067C50.1047 59.9132 53.0916 61.1665 56.5824 61.1665L63.4097 61.2305C66.215 61.2305 68.6209 62.2276 70.6183 64.2218C72.6156 66.2161 73.6188 68.6036 73.6188 71.3891C73.6188 74.1747 72.6202 76.64 70.6183 78.6525C68.6164 80.665 66.215 81.6759 63.4097 81.6759H36.1006V73.8316H63.4142V73.8362ZM63.4142 92.0952H36.1006V84.251H63.4142C66.9005 84.251 69.892 82.9977 72.3796 80.4912C74.8672 77.9847 76.111 74.9705 76.111 71.4578C76.111 67.945 74.8672 64.9445 72.3796 62.4563C69.892 59.9681 66.9005 58.7286 63.4142 58.7286H56.587C53.7816 58.7286 51.3757 57.7223 49.3784 55.7052C47.381 53.6927 46.3778 51.2685 46.3778 48.4419C46.3778 45.6152 47.3765 43.255 49.3784 41.2425C51.3757 39.2712 53.7816 38.2649 56.587 38.2192H83.9006V45.9994H56.5824C55.9015 45.9994 55.3295 46.2372 54.862 46.7083C54.3944 47.1795 54.1584 47.7603 54.1584 48.4464C54.1584 49.1325 54.3944 49.7088 54.862 50.1799C55.3295 50.651 55.9015 50.8889 56.5824 50.8889H63.4097C69.0249 50.8889 73.8413 52.9014 77.8632 56.931C81.8851 60.9606 83.8915 65.8044 83.8915 71.4623C83.8915 77.1203 81.8806 82.0829 77.8632 86.0897C73.8413 90.0964 69.0249 92.0998 63.4097 92.0998L63.4142 92.0952Z" fill="white"/>
</g>
</svg>
